<svg width="180" height="180" viewBox="0 0 180 180" fill="none" xmlns="http://www.w3.org/2000/svg">
<g clip-path="url(#clip0_126_79)">
<path d="M114 174H162C165.183 174 168.235 172.736 170.485 170.485C172.736 168.235 174 165.183 174 162V18C174 14.8174 172.736 11.7652 170.485 9.51472C168.235 7.26428 165.183 6 162 6H114C110.817 6 107.765 7.26428 105.515 9.51472C103.264 11.7652 102 14.8174 102 18V162C102 165.183 103.264 168.235 105.515 170.485C107.765 172.736 110.817 174 114 174ZM114 174H48M78 138V174M102 66H174M120 138H156M18 42H102V138H18C14.8174 138 11.7652 136.736 9.51472 134.485C7.26428 132.235 6 129.183 6 126V54C6 50.8174 7.26428 47.7652 9.51472 45.5147C11.7652 43.2643 14.8174 42 18 42Z" stroke="#0075BB" stroke-width="12"/>
</g>
<defs>
<clipPath id="clip0_126_79">
<rect width="180" height="180" fill="white"/>
</clipPath>
</defs>
</svg>
