<svg width="150" height="120" viewBox="0 0 150 120" fill="none" xmlns="http://www.w3.org/2000/svg">
<path d="M16.875 0C12.3995 0 8.10725 1.7779 4.94257 4.94257C1.7779 8.10725 0 12.3995 0 16.875V30H138.75V114.375C138.75 115.867 139.343 117.298 140.398 118.352C141.452 119.407 142.883 120 144.375 120C145.867 120 147.298 119.407 148.352 118.352C149.407 117.298 150 115.867 150 114.375V16.875C150 12.3995 148.222 8.10725 145.057 4.94257C141.893 1.7779 137.601 0 133.125 0H16.875ZM75 41.25H0V99.375C0 102.084 0.533481 104.766 1.56998 107.268C2.60649 109.77 4.12571 112.044 6.04092 113.959C7.95613 115.874 10.2298 117.394 12.7322 118.43C15.2345 119.467 17.9165 120 20.625 120H54.375C57.0835 120 59.7655 119.467 62.2678 118.43C64.7702 117.394 67.0439 115.874 68.9591 113.959C70.8743 112.044 72.3935 109.77 73.43 107.268C74.4665 104.766 75 102.084 75 99.375V41.25ZM22.5 65.625C22.5 64.1332 23.0926 62.7024 24.1475 61.6475C25.2024 60.5926 26.6332 60 28.125 60H46.875C48.3668 60 49.7976 60.5926 50.8525 61.6475C51.9074 62.7024 52.5 64.1332 52.5 65.625C52.5 67.1168 51.9074 68.5476 50.8525 69.6025C49.7976 70.6574 48.3668 71.25 46.875 71.25H28.125C26.6332 71.25 25.2024 70.6574 24.1475 69.6025C23.0926 68.5476 22.5 67.1168 22.5 65.625Z" fill="#0075BB"/>
</svg>
