<svg width="25" height="25" viewBox="0 0 25 25" fill="none" xmlns="http://www.w3.org/2000/svg">
<path fill-rule="evenodd" clip-rule="evenodd" d="M12.5 15.8651L20.9095 24.2746C21.3557 24.7208 21.961 24.9715 22.592 24.9715C23.2231 24.9715 23.8283 24.7208 24.2746 24.2746C24.7208 23.8284 24.9715 23.2231 24.9715 22.5921C24.9715 21.961 24.7208 21.3558 24.2746 20.9095L15.8619 12.5L24.273 4.09048C24.4938 3.86952 24.669 3.60723 24.7885 3.31858C24.908 3.02993 24.9694 2.72058 24.9694 2.40817C24.9693 2.09577 24.9077 1.78644 24.7881 1.49785C24.6684 1.20925 24.4931 0.947044 24.2722 0.726194C24.0512 0.505344 23.7889 0.330177 23.5003 0.210694C23.2116 0.0912107 22.9023 0.0297512 22.5899 0.0298248C22.2775 0.0298984 21.9682 0.0915034 21.6796 0.211123C21.391 0.330742 21.1288 0.506033 20.9079 0.726988L12.5 9.13651L4.09045 0.726988C3.87113 0.499696 3.60874 0.318359 3.31858 0.193558C3.02843 0.0687578 2.71633 0.00299223 2.40049 9.97531e-05C2.08465 -0.00279273 1.7714 0.0572453 1.47901 0.176711C1.18662 0.296177 0.920948 0.472677 0.6975 0.695914C0.474053 0.919151 0.297302 1.18465 0.17756 1.47693C0.057819 1.76921 -0.00251439 2.0824 8.02683e-05 2.39825C0.00267493 2.71409 0.0681455 3.02625 0.192672 3.31652C0.317199 3.60679 0.498288 3.86936 0.725373 4.08889L9.13807 12.5L0.72696 20.9111C0.499875 21.1306 0.318786 21.3932 0.194259 21.6835C0.0697319 21.9737 0.00426062 22.2859 0.00166596 22.6017C-0.0009287 22.9176 0.0594047 23.2308 0.179146 23.5231C0.298887 23.8153 0.475638 24.0808 0.699086 24.3041C0.922533 24.5273 1.1882 24.7038 1.48059 24.8233C1.77298 24.9428 2.08624 25.0028 2.40208 24.9999C2.71792 24.997 3.03002 24.9312 3.32017 24.8064C3.61032 24.6816 3.87271 24.5003 4.09204 24.273L12.5 15.8667V15.8651Z" fill="#0075BB"/>
</svg>
