<svg width="166" height="143" viewBox="0 0 166 143" fill="none" xmlns="http://www.w3.org/2000/svg">
<path d="M30.5 37.5L15.5 22.5M60.5 30V7.5M90.5 37.5L105.5 22.5" stroke="#0075BB" stroke-width="15" stroke-linecap="round" stroke-linejoin="round"/>
<path d="M60.5 105C72.9264 105 83 94.9264 83 82.5C83 70.0736 72.9264 60 60.5 60C48.0736 60 38 70.0736 38 82.5C38 94.9264 48.0736 105 60.5 105Z" stroke="#0075BB" stroke-width="15" stroke-linecap="round" stroke-linejoin="round"/>
<path d="M81.725 75H143C146.978 75 150.794 76.5804 153.607 79.3934C156.42 82.2064 158 86.0218 158 90V120C158 123.978 156.42 127.794 153.607 130.607C150.794 133.42 146.978 135 143 135H23C19.0218 135 15.2064 133.42 12.3934 130.607C9.58035 127.794 8 123.978 8 120V90C8 86.0218 9.58035 82.2064 12.3934 79.3934C15.2064 76.5804 19.0218 75 23 75H39.275M113 105H128" stroke="#0075BB" stroke-width="15" stroke-linecap="round" stroke-linejoin="round"/>
</svg>
